<?xml version="1.0" encoding="UTF-8"?>
<svg xmlns="http://www.w3.org/2000/svg" width="512" height="512" viewBox="0 0 512 512"><g><path d="M502.92,411.98l-65-112A8.011,8.011,0,0,0,431,296H344.94l12-24H396a28.031,28.031,0,0,0,28-28V76a28.031,28.031,0,0,0-28-28H116A28.031,28.031,0,0,0,88,76V244a28.031,28.031,0,0,0,28,28H283.06l12,24H80a8.019,8.019,0,0,0-6.95,4.03l-64,112A8.017,8.017,0,0,0,8,416v40a8,8,0,0,0,8,8H496a8,8,0,0,0,8-8V416A8,8,0,0,0,502.92,411.98ZM426.39,312l55.72,96h-29l-44.58-96ZM288,256H116a12.01,12.01,0,0,1-12-12V76a12.01,12.01,0,0,1,12-12H396a12.01,12.01,0,0,1,12,12V244a12.01,12.01,0,0,1-12,12H352a8.011,8.011,0,0,0-7.16,4.42L320,310.11l-24.84-49.69A8.011,8.011,0,0,0,288,256ZM120.34,312H303.06l9.78,19.58a8.009,8.009,0,0,0,14.32,0L336.94,312h53.95l44.58,96H76.45Zm-35.7,0h18.11L58.86,408H29.79ZM488,448H24V424H488Z"/><circle cx="256" cy="360" r="8"/><circle cx="288" cy="360" r="8"/><circle cx="224" cy="360" r="8"/><path d="M322.54,167l-11.31-11.31a20.026,20.026,0,0,0-28.29,0l-8.48,8.48a16,16,0,1,1-22.63-22.63l8.48-8.48a20.026,20.026,0,0,0,0-28.29L249,93.46a20.014,20.014,0,0,0-28.28,0l-8.49,8.49A72,72,0,1,0,314.05,203.77l8.49-8.49a19.99,19.99,0,0,0,0-28.28Zm-90.51-62.22a3.99,3.99,0,0,1,5.66,0L249,116.09a4.008,4.008,0,0,1,0,5.66l-2.83,2.82L229.2,107.6Zm31.11,104.08a56,56,0,0,1-44.85-89.54l17.28,17.28a32.009,32.009,0,0,0,43.83,43.83l17.28,17.28A55.523,55.523,0,0,1,263.14,208.86Zm48.09-24.89-2.83,2.83-16.97-16.97,2.82-2.83a4.008,4.008,0,0,1,5.66,0l11.32,11.31a4.008,4.008,0,0,1,0,5.66Z"/></g></svg>
