<svg width="620" height="148" viewBox="0 0 620 148" fill="none" xmlns="http://www.w3.org/2000/svg">
<path d="M71.74 69.4C82.18 71.56 90.16 75.88 95.68 82.36C101.32 88.72 104.14 96.46 104.14 105.58C104.14 113.02 102.1 119.92 98.02 126.28C94.06 132.64 87.94 137.8 79.66 141.76C71.5 145.6 61.36 147.52 49.24 147.52C40.36 147.52 31.54 146.44 22.78 144.28C14.14 142.12 6.64 139.06 0.28 135.1L13.24 108.28C18.16 111.64 23.68 114.22 29.8 116.02C36.04 117.82 42.16 118.72 48.16 118.72C54.28 118.72 59.14 117.58 62.74 115.3C66.34 113.02 68.14 109.78 68.14 105.58C68.14 97.42 61.72 93.34 48.88 93.34H33.94V70.84L56.44 46.54H6.76V19H97.84V41.32L71.74 69.4ZM117.737 47.44H151.937V145H117.737V47.44ZM134.837 36.64C128.597 36.64 123.557 34.9 119.717 31.42C115.877 27.94 113.957 23.62 113.957 18.46C113.957 13.3 115.877 8.97999 119.717 5.49999C123.557 2.02 128.597 0.279996 134.837 0.279996C141.077 0.279996 146.117 1.96 149.957 5.32C153.797 8.56 155.717 12.76 155.717 17.92C155.717 23.32 153.797 27.82 149.957 31.42C146.117 34.9 141.077 36.64 134.837 36.64ZM350.566 19L296.566 145H261.466L207.646 19H246.166L280.366 101.08L315.286 19H350.566ZM417.024 147.52C403.704 147.52 391.704 144.7 381.024 139.06C370.464 133.42 362.124 125.62 356.004 115.66C350.004 105.7 347.004 94.48 347.004 82C347.004 69.52 350.004 58.3 356.004 48.34C362.124 38.38 370.464 30.58 381.024 24.94C391.704 19.3 403.704 16.48 417.024 16.48C430.344 16.48 442.284 19.3 452.844 24.94C463.524 30.58 471.864 38.38 477.864 48.34C483.984 58.3 487.044 69.52 487.044 82C487.044 94.48 483.984 105.7 477.864 115.66C471.864 125.62 463.524 133.42 452.844 139.06C442.284 144.7 430.344 147.52 417.024 147.52ZM417.024 118C423.384 118 429.144 116.5 434.304 113.5C439.464 110.5 443.544 106.3 446.544 100.9C449.544 95.38 451.044 89.08 451.044 82C451.044 74.92 449.544 68.68 446.544 63.28C443.544 57.76 439.464 53.5 434.304 50.5C429.144 47.5 423.384 46 417.024 46C410.664 46 404.904 47.5 399.744 50.5C394.584 53.5 390.504 57.76 387.504 63.28C384.504 68.68 383.004 74.92 383.004 82C383.004 89.08 384.504 95.38 387.504 100.9C390.504 106.3 394.584 110.5 399.744 113.5C404.904 116.5 410.664 118 417.024 118ZM578 145L551.9 105.94L526.16 145H485.48L531.38 81.28L487.46 19H527.6L552.8 55.36L577.64 19H616.16L572.24 79.84L619.04 145H578Z" fill="#0053D7"/>
</svg>
