<svg width="952" height="974" viewBox="0 0 952 974" fill="none" xmlns="http://www.w3.org/2000/svg">
<path d="M3.64095e-05 55.9999C3.64095e-05 55.9999 60.2538 118.653 69.5455 136.241C85.8072 167.022 106.586 171.134 119.531 203.219C130.282 229.864 154.304 283.194 154.304 283.194C154.304 283.194 178.192 280.449 188 283.194C212.149 289.953 210.93 293.117 215.156 337.177C218.775 374.905 236.889 387.161 236.889 387.161C236.889 387.161 271.964 378.254 291.222 387.161C310.004 395.848 312 405 325.994 427.148C345.864 458.595 380.327 511.121 380.327 511.121L404.233 549.109L428.139 585.098C428.139 585.098 486.377 539.189 502.031 569.103C519.335 602.168 595.483 743.048 595.483 743.048L636.776 831.02C636.776 831.02 671.919 842.797 693.281 853.013C722.922 867.189 811 974 811 974H4.11778e-05V237.209C4.11778e-05 237.209 -3.07237e-06 161.371 1.69847e-07 114C4.82392e-06 46 3.64095e-05 55.9999 3.64095e-05 55.9999Z" fill="#1F79F3"/>
<path d="M263.633 0.713379L951.715 793.037L947.94 796.316L259.858 3.99184L263.633 0.713379Z" fill="#1F79F3"/>
<path d="M341.441 77.4502C341.064 84.6199 334.461 90.1009 326.694 89.6923C324.523 89.5781 322.49 89.0157 320.697 88.108L297.415 113.104L324.546 154.492H360.01L372.771 194.28L360.01 234.492L280.01 234.492L266.771 194.28L280.01 154.492L314.981 154.492L287.285 112.243L314.882 82.6129C313.767 80.628 313.188 78.356 313.313 75.9704C313.69 68.8006 320.293 63.3196 328.06 63.7282C335.827 64.1369 341.818 70.2804 341.441 77.4502Z" fill="#1F79F3"/>
<path d="M596.099 372.893C595.722 380.063 589.12 385.544 581.353 385.136C579.181 385.021 577.149 384.459 575.355 383.551L552.074 408.548L576.943 446.485L614.655 446.484L627.416 486.272L614.655 526.484H534.655L521.416 486.272L534.655 446.485H567.377L541.943 407.686L569.541 378.056C568.426 376.071 567.846 373.799 567.972 371.414C568.349 364.244 574.951 358.763 582.719 359.172C590.486 359.58 596.477 365.724 596.099 372.893Z" fill="#1F79F3"/>
<path d="M470.145 226.919C469.768 234.089 463.165 239.57 455.398 239.162C453.227 239.047 451.194 238.485 449.401 237.577L426.119 262.574L451.455 301.223H489.675L502.436 341.01L489.675 381.223H409.675L396.436 341.01L409.675 301.223H441.889L415.989 261.712L443.586 232.082C442.471 230.097 441.891 227.825 442.017 225.44C442.394 218.27 448.997 212.789 456.764 213.198C464.531 213.606 470.522 219.75 470.145 226.919Z" fill="#1F79F3"/>
<path d="M849.013 662.896C848.635 670.066 842.033 675.547 834.266 675.138C832.094 675.024 830.062 674.461 828.269 673.554L804.987 698.55L831.56 739.086H867.726L880.487 778.874L867.726 819.086H787.726L774.487 778.874L787.726 739.086H821.994L794.857 697.689L822.454 668.059C821.339 666.074 820.759 663.802 820.885 661.416C821.262 654.246 827.864 648.765 835.632 649.174C843.399 649.583 849.39 655.726 849.013 662.896Z" fill="#1F79F3"/>
<path d="M724.057 518.895C723.68 526.064 717.078 531.545 709.311 531.137C707.139 531.023 705.107 530.46 703.313 529.552L680.032 554.549L705.123 592.826H742.664L755.425 632.613L742.664 672.826H662.664L649.425 632.613L662.664 592.826H695.558L669.901 553.687L697.499 524.057C696.384 522.072 695.804 519.8 695.93 517.415C696.307 510.245 702.909 504.764 710.677 505.173C718.444 505.581 724.435 511.725 724.057 518.895Z" fill="#1F79F3"/>
</svg>
